<?xml version="1.0" encoding="utf-8"?>
<!-- Generator: Adobe Illustrator 21.0.0, SVG Export Plug-In . SVG Version: 6.00 Build 0)  -->
<svg version="1.1" id="Layer_1" xmlns="http://www.w3.org/2000/svg" xmlns:xlink="http://www.w3.org/1999/xlink" x="0px" y="0px"
	 viewBox="0 0 431.6 132.7" style="enable-background:new 0 0 431.6 132.7;" xml:space="preserve">
<style type="text/css">
	.st0{fill:#FFFFFF;}
</style>
<title>stjude-logo-small</title>
<path class="st0" d="M149.6,18.9c-0.8-2.6-2.2-5.7-5.9-5.7c-2.4-0.1-4.5,1.7-4.6,4.1c0,0.2,0,0.4,0,0.6c0,2.5,1.8,4.1,5.2,5.7
	l1.2,0.5c3.5,1.6,6.7,3.9,6.7,8.6c0,5.3-4.2,9-10.2,9c-1.5,0-3.1-0.3-4.5-0.8c-1.3-0.4-2.1-0.8-2.6-0.9c-0.6-2.3-1-4.6-1.3-6.9
	l1.3-0.4c0.9,2.3,3.3,7.3,7.9,7.3c2.6,0,4.7-2.1,4.7-4.7c0-0.1,0-0.2,0-0.3c0-2.5-1.2-4.3-4.7-6l-1.4-0.7c-3-1.5-6.7-3.9-6.7-8.2
	c0-4.7,3.5-8.5,9.5-8.5c1.4,0,2.8,0.2,4.1,0.6c0.7,0.3,1.3,0.4,1.9,0.6c0.2,1.6,0.4,3.5,0.9,6L149.6,18.9z"/>
<path class="st0" d="M165.5,37.8c-0.8,0.5-1.7,0.8-2.7,0.8c-0.9,0-2.5-0.6-2.5-4.4V22.3h4.3c0.6-0.6,0.8-1.5,0.3-2.2h-4.7v-6.2h-0.8
	c-0.8,1.6-2.2,2.7-3.8,3.3v2.9h-3v2.2h3v13.6c0,4,1.7,5.7,5,5.7c0.5,0,1.1-0.2,1.5-0.5L166,39L165.5,37.8z"/>
<path class="st0" d="M401.8,74.3c-0.8,0.5-1.7,0.8-2.7,0.8c-0.9,0-2.5-0.6-2.5-4.4V58.8h4.3c0.6-0.6,0.8-1.5,0.3-2.2h-4.6v-6.2h-0.8
	c-0.8,1.6-2.2,2.7-3.8,3.3v2.9h-3v2.2h3v13.6c0,4,1.7,5.7,5,5.7c0.5,0,1.1-0.2,1.5-0.5l3.9-2.1L401.8,74.3z"/>
<path class="st0" d="M167.6,38.1c-0.1-1.8,1.2-3.3,2.9-3.4c0,0,0,0,0.1,0c1.7,0,3.1,1.4,3.1,3.1c0,0.1,0,0.2,0,0.3
	c0,2.1-1.3,3.5-3.1,3.5C169,41.6,167.6,40.3,167.6,38.1z"/>
<path class="st0" d="M187.2,19.8c0-5.2-0.4-5.6-4.1-5.9v-1.4h12.6v1.4c-3.2,0.3-3.5,0.7-3.5,5.9v12.6c0,5.3-0.4,9.5-4.3,12.6
	c-1.6,1.3-3.4,2.3-5.4,2.8l-0.5-1.4c2.5-1.1,4.3-3.5,4.7-6.2c0.4-2.8,0.6-5.6,0.5-8.4C187.2,31.8,187.2,19.8,187.2,19.8z"/>
<path class="st0" d="M202.3,33.6c0,3.6,1.7,4.6,3.4,4.6c1.6-0.1,3.1-0.8,4.2-2v-12c0-1.8-0.3-2-1.8-2.3l-1.3-0.2v-1.2
	c2.1-0.1,5.7-0.6,7.6-0.9V36c0,2,0.3,2.4,1.5,2.4h1.7v1.4c-2.5,0.4-5,1-7.4,1.7l-0.4-0.4V38c-0.9,0.7-1.8,1.4-2.8,2.1
	c-1.1,0.8-2.4,1.3-3.7,1.4c-3.6,0-5.8-2.3-5.8-6.5V24.2c0-1.8-0.4-2-1.4-2.2l-1.2-0.3v-1.2c1.8-0.1,5.2-0.6,7.2-0.9v14H202.3z"/>
<path class="st0" d="M236.9,36.1c0,2.1,0.3,2.4,1.5,2.4h1.7v1.4c-2.6,0.5-5.2,1.1-7.8,1.9V39l-3.2,2c-0.6,0.4-1.2,0.6-1.9,0.7
	c-3.9,0-9-3.3-9-10.4c0-6.4,5.1-11.7,11.6-11.7c0.1,0,0.2,0,0.3,0c0.4,0,1.2,0.1,2.2,0.2V17c0-2.8-0.1-2.8-3.2-3v-1.3
	c2.3-0.4,5.5-1.1,7.8-1.6L236.9,36.1L236.9,36.1z M232.3,23.7c-0.7-1.4-2.2-2.3-3.8-2.2c-1.3,0-5,0.9-5,8.5c0,5.8,3.2,8.4,5.5,8.4
	c1.2,0,2.4-0.4,3.4-1.2L232.3,23.7L232.3,23.7z"/>
<path class="st0" d="M257,36.6c-2.5,4-5.9,5-7.2,5c-5.9,0-9.3-4.5-9.4-10.1c-0.1-6,4.1-12,10-12c3.7,0.1,6.7,3.2,6.7,6.9
	c0,1.8-0.1,1.9-0.9,2.1c-0.6,0.1-6.4,0.6-11.3,0.8c-0.1,6.1,3.4,8.6,6.8,8.6c1.8-0.1,3.4-0.8,4.7-2L257,36.6z M251.8,27.2
	c0.6,0,0.8-0.3,0.8-1.4c0-1.9-1.4-4.4-3.4-4.4s-3.8,2.3-4.1,5.9L251.8,27.2z"/>
<path class="st0" d="M292.1,19.7c-1.4-5.1-4.2-6.6-8.4-6.6c-7.3,0-10.6,6.2-10.6,12.8c0,8.4,4.1,14.1,10.6,14.1
	c4.8,0,7.1-2.5,9.4-7.3l1.3,0.3c-0.6,2.5-1.3,5-2.2,7.5c-2.7,0.8-5.6,1.2-8.4,1.3c-11.7,0-16.5-7.7-16.5-14.8
	c0-9.4,7.2-15.8,17.3-15.8c2.7,0.1,5.5,0.5,8.1,1.2c0.4,2.5,0.5,4.5,0.8,7.1L292.1,19.7z"/>
<path class="st0" d="M302,22.6c1.6-1.7,3.7-2.8,6-3.1c4.1,0,6.3,2.7,6.3,7.1v9.9c0,2.8,0.3,2.9,2.6,3.2v1.4h-9.8v-1.4
	c2.3-0.3,2.5-0.5,2.5-3.2v-8.7c0-3.4-1.4-5-3.9-5c-1.4,0-2.8,0.6-3.8,1.7v12c0,2.8,0.3,2.9,2.4,3.2v1.4h-10v-1.4
	c2.7-0.3,3-0.5,3-3.2V17.3c0-2.8-0.1-2.8-2.9-3V13c1.9-0.3,5.2-1.1,7.5-1.6L302,22.6L302,22.6z"/>
<path class="st0" d="M324.6,36.4c0,2.7,0.3,2.9,3.1,3.2V41H317v-1.4c2.9-0.3,3-0.6,3-3.2V25.6c0-2.9-0.1-3-2.9-3.3v-1.1
	c2.2-0.4,5.1-1.1,7.5-1.8V36.4z M325.1,14c0,1.6-1.2,3-2.9,3l0,0c-1.7,0.1-3.2-1.2-3.3-2.9c-0.1-1.7,1.2-3.2,2.9-3.3
	s3.2,1.2,3.3,2.9C325.1,13.8,325.1,13.9,325.1,14z"/>
<path class="st0" d="M335.3,36.4c0,2.7,0.2,2.9,3.1,3.2V41h-10.7v-1.4c2.8-0.3,3-0.6,3-3.2V17.3c0-2.8-0.1-2.8-3-3.1V13
	c1.9-0.3,5.2-1.1,7.6-1.6V36.4z"/>
<path class="st0" d="M356.3,36.1c0,2.1,0.3,2.4,1.5,2.4h1.7v1.4c-2.6,0.5-5.2,1.1-7.8,1.9V39l-3.2,2c-0.6,0.4-1.2,0.6-1.9,0.7
	c-3.9,0-9-3.3-9-10.4c0-6.4,5.1-11.7,11.6-11.7c0.1,0,0.2,0,0.3,0c0.4,0,1.2,0.1,2.2,0.2v-2.5c0-2.8-0.1-2.8-3.2-3V13
	c2.3-0.4,5.5-1.1,7.8-1.6V36.1z M351.7,23.7c-0.7-1.4-2.2-2.3-3.8-2.2c-1.3,0-5,0.9-5,8.5c0,5.8,3.2,8.4,5.5,8.4
	c1.2,0,2.4-0.4,3.4-1.2V23.7H351.7z"/>
<path class="st0" d="M367.7,24.3h0.1c1.1-1.8,2.9-4.9,5.1-4.9c1.5,0,2.8,1.3,2.8,2.8c0,1.3-0.7,2.4-1.8,3c-0.4,0.2-0.9,0.1-1.3-0.2
	c-0.5-0.7-1.3-1.1-2.1-1.1c-0.8,0-1.8,0.6-2.8,2.7v9.8c0,2.7,0.3,2.9,3.5,3.2V41h-11v-1.4c2.6-0.3,2.9-0.6,2.9-3.2V25.6
	c0-2.9-0.1-3-2.9-3.3v-1.1c2.2-0.4,5.1-1.1,7.5-1.8C367.7,19.4,367.7,24.3,367.7,24.3z"/>
<path class="st0" d="M391.8,36.6c-2.5,4-5.9,5-7.2,5c-5.9,0-9.3-4.5-9.4-10.1c-0.1-6,4.1-12,10-12c3.7,0.1,6.7,3.2,6.7,6.9
	c0,1.8-0.1,1.9-0.9,2.1c-0.6,0.1-6.4,0.6-11.3,0.8c-0.1,6.1,3.4,8.6,6.8,8.6c1.8-0.1,3.4-0.8,4.7-2L391.8,36.6z M386.5,27.2
	c0.6,0,0.8-0.3,0.8-1.4c0-1.9-1.4-4.4-3.4-4.4s-3.8,2.3-4.1,5.9L386.5,27.2z"/>
<path class="st0" d="M399.4,22.8c0.9-0.6,1.8-1.2,2.6-1.8c1.1-0.9,2.5-1.5,3.9-1.5c3.6,0,5.8,2.7,5.8,6.4v10.7
	c0,2.7,0.2,2.8,2.7,3.1v1.4h-10v-1.4c2.5-0.3,2.7-0.5,2.7-3.1v-9.3c0-2.9-1.3-4.5-3.6-4.5c-1.6,0.2-3,0.9-4.1,2v11.8
	c0,2.7,0.3,2.8,2.5,3.1v1.4h-10.3v-1.4c2.9-0.3,3.2-0.5,3.2-3.1V25.7c0-2.9-0.1-3-2.9-3.3v-1.1c2.2-0.4,5.1-1.1,7.5-1.8L399.4,22.8
	L399.4,22.8z"/>
<path class="st0" d="M414.5,20.4c1.5-2.9-1-3.3-1.3-4.7c-0.2-0.5-0.2-1.1,0.1-1.6c0.5-1,1.8-1.4,2.8-0.8h0.1c2,1.1,2.6,4.8-1.3,7.4
	L414.5,20.4z"/>
<path class="st0" d="M417.2,33.9c0.7,2.9,3,5.8,5.5,5.8c1.7,0,3-1.3,3-3v-0.1c0-1.6-1-3-3.4-4.1s-5.5-2.9-5.5-6.4s2.5-6.6,7.1-6.7
	c1.4,0,2.8,0.3,4.1,0.9c0.5,1.6,0.8,3.2,1.1,4.9l-1.3,0.4c-1.4-3.2-3-4.3-4.6-4.3c-1.5,0-2.6,1.2-2.6,2.7v0.1c0,1.6,1.6,2.9,3.5,3.7
	c3.4,1.4,5.9,3.3,5.9,6.9c0,4.8-4.2,6.9-7.8,6.9c-2,0-3.9-0.7-5.5-1.9c-0.5-1.9-0.7-3.8-0.6-5.7L417.2,33.9z"/>
<path class="st0" d="M145.7,47.8c3.3,0,5.6,0.4,7.4,1.6c1.9,1.3,3,3.5,3,5.8c0,3.8-2.3,6.5-5.9,7.9c0.7,1.3,2.5,4.5,3.9,6.5
	c1.1,1.8,2.4,3.5,3.7,5.1c0.8,1,1.9,1.7,3.1,2.1l-0.2,1.2l-1.9-0.1c-4.9-0.4-6.4-1.6-8.1-4.2c-1.4-2.1-2.9-5-4.2-7.4
	c-0.4-1.1-1.4-1.8-2.6-1.7h-1.4v6.1c0,4.9,0.4,5.3,3.8,5.6v1.3h-12.6v-1.3c3.6-0.3,3.9-0.6,3.9-5.6v-16c0-4.9-0.4-5.3-3.8-5.6v-1.3
	H145.7z M142.4,63h1.7c1.5,0.1,3-0.3,4.2-1.2c1.6-1.5,2.5-3.6,2.4-5.8c0-4.8-3.2-6.4-6.1-6.4c-2.1,0-2.2,0.2-2.2,1.6L142.4,63
	L142.4,63z"/>
<path class="st0" d="M175.5,73.1c-2.5,4-5.9,5-7.2,5c-5.9,0-9.3-4.5-9.4-10.1c-0.1-6,4.1-12,10-12c3.7,0.1,6.7,3.2,6.7,6.9
	c0,1.8-0.1,1.9-0.9,2.1c-0.6,0.1-6.4,0.6-11.3,0.8c-0.1,6.1,3.4,8.6,6.8,8.6c1.8-0.1,3.4-0.8,4.7-2L175.5,73.1z M170.3,63.7
	c0.6,0,0.8-0.3,0.8-1.4c0-1.9-1.4-4.4-3.4-4.4s-3.8,2.3-4.1,5.9L170.3,63.7z"/>
<path class="st0" d="M177.8,70.4c0.7,2.9,3,5.8,5.5,5.8c1.7,0,3-1.3,3-3v-0.1c0-1.6-1-3-3.4-4.1s-5.5-2.9-5.5-6.4s2.5-6.6,7.1-6.7
	c1.4,0,2.8,0.3,4.1,0.9c0.5,1.6,0.8,3.2,1.1,4.9l-1.3,0.4c-1.4-3.2-3-4.3-4.6-4.3c-1.5,0-2.6,1.2-2.6,2.7v0.1c0,1.6,1.6,2.9,3.5,3.7
	c3.4,1.4,5.9,3.3,5.9,6.9c0,4.8-4.2,6.9-7.8,6.9c-2,0-3.9-0.7-5.5-1.9c-0.5-1.8-0.7-3.7-0.6-5.6L177.8,70.4z"/>
<path class="st0" d="M208.5,73.1c-2.5,4-5.9,5-7.2,5c-5.9,0-9.3-4.5-9.4-10.1c-0.1-6,4.1-12,10-12c3.7,0.1,6.7,3.2,6.7,6.9
	c0,1.8-0.1,1.9-0.9,2.1c-0.6,0.1-6.4,0.6-11.3,0.8c-0.1,6.1,3.4,8.6,6.8,8.6c1.8-0.1,3.4-0.8,4.7-2L208.5,73.1z M203.2,63.7
	c0.6,0,0.8-0.3,0.8-1.4c0-1.9-1.4-4.4-3.4-4.4s-3.8,2.3-4.1,5.9L203.2,63.7z"/>
<path class="st0" d="M228,75.5l-4.6,2.6c-1.7-0.1-3-1.4-3.2-3c-1.9,1.2-4.3,3-5.2,3c-3.1-0.1-5.6-2.7-5.5-5.8
	c-0.1-2.3,1.3-4.3,3.4-5.1c2.2-1,5.8-2.4,7.2-3.3v-1.3c0-2.8-1.2-4.2-3.2-4.2c-0.6,0-1.3,0.3-1.7,0.8c-0.7,0.6-1.2,1.7-1.5,3.6
	c-0.1,0.7-0.7,1.2-1.4,1.1c-1.2-0.1-2.1-0.9-2.3-2.1c0.1-0.9,0.6-1.7,1.4-2.2c2.2-1.7,4.8-2.9,7.5-3.5c2.9-0.2,5.5,2,5.7,4.9
	c0,0.3,0,0.7,0,1v10.3c0,1.9,0.6,2.7,1.3,2.7c0.6-0.1,1.2-0.3,1.8-0.6L228,75.5z M220.2,65.6c-0.9,0.5-2.7,1.4-3.5,1.9
	c-1.4,0.7-2.2,2.1-2.1,3.6c0,2.5,1.5,3.7,2.7,3.7c1.1-0.2,2.2-0.7,3-1.5L220.2,65.6L220.2,65.6z"/>
<path class="st0" d="M235.9,60.8h0.1c1.1-1.8,2.9-4.9,5.1-4.9c1.5,0,2.8,1.3,2.8,2.8c0,1.3-0.7,2.4-1.8,3c-0.4,0.2-0.9,0.1-1.3-0.2
	c-0.5-0.7-1.3-1.1-2.1-1.1s-1.8,0.6-2.8,2.7v9.8c0,2.7,0.3,2.9,3.5,3.2v1.4h-11v-1.4c2.6-0.3,2.9-0.6,2.9-3.2V62.1
	c0-2.9-0.1-3-2.9-3.3v-1.1c2.2-0.4,5.1-1.1,7.5-1.8V60.8L235.9,60.8z"/>
<path class="st0" d="M259.9,72.8c-1.8,3-4.7,5.3-7.4,5.3c-6,0-9.4-4.9-9.4-10.1c0-3.5,1.5-6.8,4.1-9.1c2.1-1.7,4.7-2.8,7.4-2.9
	c1.5,0,2.9,0.5,4.1,1.3c0.4,0.3,0.6,0.8,0.5,1.3c0,1.4-1,2.5-1.7,2.5c-0.3,0-0.6-0.2-0.8-0.4c-1.2-1.3-2.8-2.1-4.6-2.1
	c-1.7,0-4.4,1.5-4.4,7.1c0,6.9,4.4,8.8,6.5,8.8c1.9,0,3.1-0.6,5-2.4L259.9,72.8z"/>
<path class="st0" d="M266.6,59.1c1.6-1.7,3.7-2.8,6-3.1c4.1,0,6.3,2.7,6.3,7.1V73c0,2.8,0.3,2.9,2.6,3.2v1.4h-9.8v-1.4
	c2.3-0.3,2.5-0.5,2.5-3.2v-8.7c0-3.4-1.4-5-3.9-5c-1.4,0-2.8,0.6-3.8,1.7v12c0,2.8,0.3,2.9,2.4,3.2v1.4h-10v-1.4
	c2.7-0.3,3-0.5,3-3.2V53.7c0-2.8-0.1-2.8-2.9-3v-1.3c1.9-0.3,5.2-1.1,7.5-1.6L266.6,59.1L266.6,59.1z"/>
<path class="st0" d="M304.3,47.8v1.3c-3.3,0.3-3.7,0.6-3.7,5.6v6.1h13.6v-6.1c0-4.9-0.4-5.3-3.8-5.6v-1.3h12.7v1.3
	c-3.6,0.3-3.9,0.6-3.9,5.6v16c0,4.9,0.4,5.3,3.8,5.6v1.3h-13v-1.3c3.8-0.3,4.1-0.6,4.1-5.6v-7.8h-13.6v7.8c0,4.9,0.4,5.3,3.8,5.6
	v1.3h-12.8v-1.3c3.6-0.3,3.9-0.6,3.9-5.6v-16c0-4.9-0.4-5.3-4.1-5.6v-1.3H304.3z"/>
<path class="st0" d="M342.5,66.6c0,7.6-5.1,11.4-9.9,11.4c-6.7,0-10.1-5.4-10.1-10.6c0-7.7,5.6-11.5,10.2-11.5
	C338.5,56,342.5,60.9,342.5,66.6z M337.2,67.6c0-6-1.8-9.8-5.1-9.8c-2.2,0-4.3,2.9-4.3,8.2c0,6.1,2,10.4,5.3,10.4
	C334.9,76.3,337.2,74.4,337.2,67.6z"/>
<path class="st0" d="M344.9,70.4c0.7,2.9,3,5.8,5.5,5.8c1.7,0,3-1.3,3-3v-0.1c0-1.6-1-3-3.4-4.1s-5.5-2.9-5.5-6.4s2.5-6.6,7.1-6.7
	c1.4,0,2.8,0.3,4.1,0.9c0.5,1.6,0.8,3.2,1.1,4.9l-1.3,0.4c-1.4-3.2-3-4.3-4.6-4.3c-1.5,0-2.6,1.2-2.6,2.7v0.1c0,1.6,1.6,2.9,3.5,3.7
	c3.4,1.4,5.9,3.3,5.9,6.9c0,4.8-4.2,6.9-7.8,6.9c-2,0-3.9-0.7-5.5-1.9c-0.5-1.8-0.7-3.7-0.6-5.6L344.9,70.4z"/>
<path class="st0" d="M365.8,58.9l4.5-2.6c0.6-0.2,1.2-0.3,1.8-0.3c5.1,0,7.6,4.8,7.6,9.1c0,7.2-4.9,11.7-10.8,13
	c-1.1,0-2.2-0.3-3.1-0.8v6.5c0,2.6,0.3,2.8,3.8,3.1v1.4h-11.4V87c2.8-0.3,3-0.6,3-3.1v-22c0-2.6-0.1-2.7-3-3v-1.1
	c2.3-0.5,4.8-1.4,7.6-2.2V58.9z M365.8,74c1.1,1,2.6,1.6,4.1,1.7c2.1,0,5-2,5-8.2c0-6-2.6-8.2-5.5-8.2c-1.3,0.1-2.6,0.6-3.6,1.4V74z
	"/>
<path class="st0" d="M387.3,72.9c0,2.7,0.3,2.9,3.1,3.2v1.4h-10.7v-1.4c2.9-0.3,3-0.6,3-3.2V62.1c0-2.9-0.1-3-2.9-3.3v-1.1
	c2.2-0.4,5.1-1.1,7.5-1.8V72.9z M387.7,51c0,1.6-1.2,3-2.9,3l0,0c-1.7-0.1-3-1.6-2.9-3.3c0.1-1.5,1.3-2.7,2.9-2.9
	C386.5,48,387.8,49.4,387.7,51z"/>
<path class="st0" d="M421.1,75.5l-4.6,2.6c-1.7-0.1-3-1.4-3.2-3c-1.9,1.2-4.3,3-5.2,3c-3.1-0.1-5.6-2.7-5.5-5.8
	c-0.1-2.3,1.3-4.3,3.4-5.1c2.2-1,5.8-2.4,7.2-3.3v-1.3c0-2.8-1.2-4.2-3.2-4.2c-0.6,0-1.3,0.3-1.7,0.8c-0.7,0.6-1.2,1.7-1.5,3.6
	c-0.1,0.7-0.7,1.2-1.4,1.1c-1.2-0.1-2.1-0.9-2.3-2.1c0.1-0.9,0.6-1.7,1.4-2.2c2.2-1.7,4.8-2.9,7.5-3.5c2.9-0.2,5.5,2,5.7,4.9
	c0,0.3,0,0.7,0,1v10.3c0,1.9,0.6,2.7,1.3,2.7c0.6-0.1,1.2-0.3,1.8-0.6L421.1,75.5z M413.2,65.6c-0.9,0.5-2.7,1.4-3.5,1.9
	c-1.4,0.7-2.2,2.1-2.1,3.6c0,2.5,1.5,3.7,2.7,3.7c1.1-0.2,2.2-0.7,3-1.5v-7.7H413.2z"/>
<path class="st0" d="M428.5,72.9c0,2.7,0.2,2.9,3.1,3.2v1.4h-10.7v-1.4c2.8-0.3,3-0.6,3-3.2V53.7c0-2.8-0.1-2.8-3-3.1v-1.3
	c1.9-0.3,5.2-1.1,7.6-1.6V72.9z"/>
<path class="st0" d="M171.7,94l0.8,2.8c0.5,1.8,1.1,3.7,1.5,5.2c0.4,1.3,0.6,1.4,1.3,1.5v0.4h-3.1v-0.4l0.3-0.1
	c0.5-0.1,0.5-0.2,0.3-0.8c-0.2-0.7-0.4-1.5-0.7-2.2h-2.2c-0.2,0.6-0.4,1.3-0.5,1.9c-0.2,0.8-0.1,1,0.4,1.1h0.3v0.4h-2.7v-0.4
	c0.7-0.1,0.9-0.2,1.3-1.5l2.4-7.8L171.7,94z M170.1,99.8h1.9l-0.9-3.3l0,0L170.1,99.8z"/>
<path class="st0" d="M181.6,94.2v0.4c-1,0.1-1.1,0.2-1.1,1.8v5.2c0,0.9,0.1,1.3,0.3,1.5c0.3,0.2,0.7,0.3,1,0.2c0.5,0,1-0.1,1.4-0.4
	c0.3-0.5,0.5-1,0.6-1.5l0.4,0.1c-0.1,0.5-0.3,2-0.4,2.5h-5.6v-0.4c1-0.1,1.1-0.2,1.1-1.8v-5.3c0-1.6-0.1-1.7-1.1-1.8v-0.4
	L181.6,94.2L181.6,94.2L181.6,94.2z"/>
<path class="st0" d="M191.4,96.5c-0.2-0.9-0.6-1.9-1.6-1.9c-0.8,0-1.2,0.7-1.2,1.6c0.1,0.9,0.6,1.6,1.4,1.9l0.3,0.2
	c1.1,0.5,1.8,1.7,1.8,2.9c0.2,1.5-0.9,2.9-2.5,3.1c-0.1,0-0.1,0-0.2,0c-0.4,0-0.8-0.1-1.2-0.3c-0.3-0.1-0.6-0.3-0.7-0.3
	c-0.1-0.4-0.2-1.4-0.4-2.3l0.4-0.2c0.2,0.8,0.9,2.5,2.1,2.5c0.8,0,1.3-0.8,1.3-1.7c0-0.9-0.5-1.7-1.3-2l-0.4-0.2
	c-1.1-0.5-1.8-1.6-1.8-2.8c-0.1-1.5,0.9-2.8,2.4-2.9c0.1,0,0.1,0,0.2,0c0.4,0,0.7,0.1,1.1,0.2c0.2,0.1,0.4,0.1,0.5,0.2
	c0,0.7,0.1,1.3,0.2,2L191.4,96.5z"/>
<path class="st0" d="M199.2,94l0.8,2.8c0.5,1.8,1.1,3.7,1.5,5.2c0.4,1.3,0.6,1.4,1.3,1.5v0.4h-3.2v-0.4l0.3-0.1
	c0.5-0.1,0.5-0.2,0.3-0.8c-0.2-0.7-0.4-1.5-0.7-2.2h-2.2c-0.2,0.6-0.4,1.3-0.5,1.9c-0.2,0.8-0.1,1,0.4,1.1h0.3v0.4h-2.7v-0.4
	c0.7-0.1,0.9-0.2,1.3-1.5l2.4-7.8L199.2,94z M197.5,99.8h1.9l-0.9-3.3l0,0L197.5,99.8z"/>
<path class="st0" d="M212.4,96.8c-0.4-1.7-1.1-2.2-2.3-2.2c-2,0-2.9,2.1-2.9,4.3c0,2.8,1.1,4.7,2.9,4.7c1.3,0,1.9-0.8,2.5-2.4
	l0.3,0.1c-0.1,0.8-0.3,1.7-0.6,2.5c-0.7,0.3-1.5,0.4-2.3,0.5c-3.2,0-4.4-2.6-4.4-5c0-3.2,2-5.3,4.6-5.3c0.7,0,1.5,0.2,2.2,0.4
	c0.1,0.8,0.1,1.5,0.2,2.4H212.4L212.4,96.8z"/>
<path class="st0" d="M223.7,98.9c0,0.9-0.6,1.7-1.3,1.7s-1.3-0.8-1.3-1.7s0.6-1.7,1.3-1.7C223.2,97.4,223.7,98.1,223.7,98.9z"/>
<path class="st0" d="M235.7,94.2c1.3-0.1,2.5,0.4,3.4,1.3c0.7,0.9,1,2,1,3.1c0,3.7-2.3,5.3-5.1,5.3h-3v-0.4c1-0.1,1.1-0.2,1.1-1.8
	v-5.3c0-1.6-0.1-1.7-1-1.8v-0.4L235.7,94.2z M234.5,101.7c0,1.4,0.1,1.7,1,1.7c2,0,3-1.8,3-4.3c0-3.2-1.3-4.3-3.2-4.3
	c-0.3,0-0.5,0-0.8,0.1c-0.1,0.1-0.1,0.3-0.1,0.7v6.1L234.5,101.7L234.5,101.7z"/>
<path class="st0" d="M248.4,103.3l-1.2,0.8c-0.6,0-0.8-0.6-0.9-0.9c-0.4,0.4-0.9,0.7-1.4,0.9c-0.9-0.1-1.6-0.9-1.5-1.8
	c0-0.7,0.3-1.3,0.9-1.6c0.7-0.3,1.3-0.6,1.9-1v-0.4c0-0.9-0.3-1.3-0.9-1.3c-0.2,0-0.4,0.1-0.5,0.3c-0.2,0.3-0.4,0.7-0.4,1.1
	c0,0.2-0.2,0.3-0.4,0.3c-0.4,0-0.6-0.3-0.6-0.7c0-0.3,0.2-0.5,0.4-0.7c0.6-0.5,1.3-0.9,2-1.1c0.4,0,0.8,0.1,1,0.4
	c0.4,0.4,0.6,0.9,0.5,1.5v3.2c0,0.6,0.2,0.8,0.3,0.8c0.2,0,0.3-0.1,0.5-0.2L248.4,103.3z M246.3,100.2c-0.3,0.2-0.6,0.4-1,0.6
	s-0.6,0.7-0.6,1.1c0,0.8,0.4,1.1,0.7,1.1c0.3-0.1,0.6-0.2,0.8-0.5v-2.3L246.3,100.2L246.3,100.2z"/>
<path class="st0" d="M253.2,98.3c0.2-0.2,0.5-0.4,0.7-0.6c0.3-0.3,0.7-0.5,1.1-0.5c1,0,1.6,0.8,1.6,2v3.3c0,0.8,0,0.9,0.7,1v0.4
	h-2.7v-0.4c0.7-0.1,0.7-0.2,0.7-1v-2.9c0-0.9-0.3-1.4-1-1.4c-0.4,0.1-0.8,0.3-1.1,0.6v3.7c0,0.8,0.1,0.9,0.7,1v0.4h-2.8v-0.4
	c0.8-0.1,0.9-0.2,0.9-1v-3.4c0-0.9,0-0.9-0.8-1v-0.3c0.7-0.1,1.4-0.3,2-0.6V98.3L253.2,98.3z"/>
<path class="st0" d="M262.2,98.3c0.2-0.2,0.5-0.4,0.7-0.6c0.3-0.3,0.7-0.5,1.1-0.5c1,0,1.6,0.8,1.6,2v3.3c0,0.8,0,0.9,0.7,1v0.4
	h-2.7v-0.4c0.7-0.1,0.7-0.2,0.7-1v-2.9c0-0.9-0.3-1.4-1-1.4c-0.4,0.1-0.8,0.3-1.1,0.6v3.7c0,0.8,0.1,0.9,0.7,1v0.4h-2.8v-0.4
	c0.8-0.1,0.9-0.2,0.9-1v-3.4c0-0.9,0-0.9-0.8-1v-0.3c0.7-0.1,1.4-0.3,2-0.6L262.2,98.3L262.2,98.3z"/>
<path class="st0" d="M271.6,97.4v0.4l-0.4,0.1c-0.3,0-0.3,0.2-0.1,0.6l1,3.4c0.2-0.6,0.9-2.9,1-3.4s0.1-0.6-0.2-0.6l-0.4-0.1v-0.4
	h2.2v0.4c-0.7,0.1-0.7,0.2-1,1s-0.8,2.1-1.5,4.2c-0.8,2.3-1.1,3.4-1.3,4.2c-0.1,0.3-0.2,0.4-0.4,0.4c-0.4-0.1-0.7-0.4-0.7-0.8
	c0-0.2,0.1-0.4,0.3-0.5c0.4-0.3,0.7-0.8,0.9-1.3c0.1-0.3,0.2-0.6,0.3-0.9v-0.5c-0.6-1.9-1.2-3.9-1.5-4.8s-0.3-0.9-1-1v-0.4
	L271.6,97.4z"/>
<path class="st0" d="M282.3,96.5c0-1,0.1-2,0.1-2.8h0.2c0.2,0.4,0.3,0.4,0.6,0.4h5c0.3,0,0.4-0.1,0.6-0.4h0.2c0,0.6,0.1,1.8,0.1,2.7
	h-0.4c0-0.5-0.2-1-0.4-1.4c-0.2-0.3-0.6-0.4-1.3-0.4h-0.6v6.9c0,1.6,0.1,1.7,1.2,1.8v0.4h-3.7v-0.4c1.1-0.1,1.2-0.2,1.2-1.8v-6.9
	h-0.4c-1,0-1.3,0.2-1.5,0.5c-0.2,0.4-0.3,0.8-0.4,1.3L282.3,96.5L282.3,96.5z"/>
<path class="st0" d="M294,98.2c0.4-0.5,1-0.9,1.6-1c1.1,0,1.7,0.8,1.7,2.2v3.1c0,0.9,0.1,0.9,0.7,1v0.4h-2.6v-0.4
	c0.6-0.1,0.7-0.2,0.7-1v-2.7c0-1.1-0.4-1.6-1.1-1.6c-0.4,0-0.8,0.2-1,0.5v3.7c0,0.9,0.1,0.9,0.7,1v0.4H292v-0.4
	c0.7-0.1,0.8-0.2,0.8-1V95c0-0.9,0-0.9-0.8-0.9v-0.4c0.7-0.1,1.3-0.3,2-0.5V98.2L294,98.2z"/>
<path class="st0" d="M306.5,100.6c0,2.4-1.4,3.6-2.7,3.6c-1.8,0-2.7-1.7-2.7-3.3c0-2.4,1.5-3.6,2.8-3.6
	C305.5,97.2,306.5,98.8,306.5,100.6z M305.1,100.8c0-1.9-0.5-3.1-1.4-3.1c-0.6,0-1.2,0.9-1.2,2.5c0,1.9,0.5,3.2,1.4,3.2
	C304.5,103.6,305.1,103,305.1,100.8z"/>
<path class="st0" d="M310.5,99.2c0-0.9,0-0.9-0.8-1v-0.3c0.7-0.1,1.4-0.3,2-0.6v1.1c0.2-0.2,0.4-0.4,0.7-0.6c0.3-0.3,0.6-0.4,1-0.5
	c0.7,0,1.2,0.5,1.4,1.1c0.3-0.3,0.6-0.5,0.8-0.7c0.2-0.3,0.6-0.5,1-0.5c1.1,0,1.6,0.8,1.6,2v3.3c0,0.9,0.1,0.9,0.7,1v0.4h-2.7v-0.4
	c0.7-0.1,0.7-0.2,0.7-1v-2.8c0-0.9-0.3-1.4-0.9-1.4c-0.4,0.1-0.8,0.3-1.1,0.6v3.6c0,0.9,0,0.9,0.7,1v0.4h-2.7v-0.4
	c0.7-0.1,0.7-0.2,0.7-1v-2.8c0-0.9-0.3-1.4-0.9-1.4c-0.4,0-0.9,0.2-1.1,0.6v3.6c0,0.9,0,0.9,0.6,1v0.4h-2.7v-0.4
	c0.8-0.1,0.8-0.2,0.8-1v-3.3L310.5,99.2L310.5,99.2z"/>
<path class="st0" d="M327.1,103.3l-1.2,0.8c-0.6,0-0.8-0.6-0.9-0.9c-0.4,0.4-0.9,0.7-1.4,0.9c-0.9-0.1-1.6-0.9-1.5-1.8
	c0-0.7,0.3-1.3,0.9-1.6c0.7-0.3,1.3-0.6,1.9-1v-0.4c0-0.9-0.3-1.3-0.9-1.3c-0.2,0-0.4,0.1-0.5,0.3c-0.2,0.3-0.4,0.7-0.4,1.1
	c0,0.2-0.2,0.3-0.4,0.3c-0.4,0-0.6-0.3-0.6-0.7c0-0.3,0.2-0.5,0.4-0.7c0.6-0.5,1.3-0.9,2-1.1c0.4,0,0.8,0.1,1,0.4
	c0.4,0.4,0.6,0.9,0.5,1.5v3.2c0,0.6,0.2,0.8,0.3,0.8c0.2,0,0.3-0.1,0.5-0.2L327.1,103.3z M324.9,100.2c-0.3,0.2-0.6,0.4-1,0.6
	s-0.6,0.7-0.6,1.1c0,0.8,0.4,1.1,0.7,1.1c0.3-0.1,0.6-0.2,0.8-0.5v-2.3L324.9,100.2L324.9,100.2z"/>
<path class="st0" d="M330.2,101.7c0.2,0.9,0.8,1.8,1.5,1.8c0.5-0.1,0.8-0.5,0.8-1s-0.3-0.9-0.9-1.3c-0.9-0.3-1.5-1.1-1.5-2
	c0-1.1,0.8-2,1.9-2.1c0.4,0,0.7,0.1,1.1,0.3c0.1,0.5,0.2,1,0.3,1.5l-0.3,0.1c-0.4-1-0.8-1.3-1.2-1.3c-0.4,0.1-0.8,0.5-0.7,0.9
	c0,0.5,0.4,1,0.9,1.1c0.9,0.3,1.6,1.1,1.6,2.1c0.1,1.1-0.8,2.1-1.9,2.2c-0.1,0-0.1,0-0.2,0c-0.6,0-1.1-0.2-1.5-0.6
	c-0.1-0.6-0.2-1.2-0.2-1.8L330.2,101.7z"/>
<path class="st0" d="M336.8,105.6c0.6-0.3,0.9-0.9,0.9-1.6c0-0.5-0.3-0.9-0.7-1.1c-0.1,0-0.2-0.2-0.2-0.5c0-0.4,0.3-0.7,0.7-0.7
	c0.6,0,1.3,0.8,1.3,1.8c0,1.1-0.7,2.1-1.8,2.5L336.8,105.6z"/>
<path class="st0" d="M352.7,94.2c0,0.2,0.1,1.4,0.1,2.2l-0.4,0.1c-0.1-0.5-0.2-0.9-0.4-1.3c-0.2-0.3-0.6-0.3-1.3-0.3h-0.6
	c-0.5,0-0.5,0-0.5,0.5v3.3h1.2c1,0,1.1-0.1,1.2-1.2h0.4v3.1H352c-0.1-1.1-0.1-1.2-1.2-1.2h-1.2v2.3c0,1.6,0.1,1.7,1.2,1.8v0.4h-3.6
	v-0.4c0.9-0.1,1-0.2,1-1.8v-5.3c0-1.6-0.1-1.7-1-1.8v-0.4L352.7,94.2z"/>
<path class="st0" d="M361.4,100.6c0,2.4-1.4,3.6-2.7,3.6c-1.8,0-2.7-1.7-2.7-3.3c0-2.4,1.5-3.6,2.8-3.6
	C360.4,97.2,361.4,98.8,361.4,100.6z M360,100.8c0-1.9-0.5-3.1-1.4-3.1c-0.6,0-1.2,0.9-1.2,2.5c0,1.9,0.5,3.2,1.4,3.2
	C359.4,103.6,360,103,360,100.8L360,100.8z"/>
<path class="st0" d="M366.6,101.6c0,1.1,0.5,1.4,0.9,1.4s0.9-0.2,1.1-0.6v-3.7c0-0.6-0.1-0.6-0.5-0.7l-0.3-0.1v-0.4
	c0.7-0.1,1.4-0.2,2.1-0.3v5.1c0,0.6,0.1,0.7,0.4,0.7h0.5v0.4c-0.6,0.1-1.4,0.4-2,0.5l-0.1-0.1v-1l-0.7,0.7c-0.3,0.2-0.6,0.4-1,0.4
	c-1,0-1.6-0.7-1.6-2v-3.4c0-0.6-0.1-0.6-0.4-0.7l-0.3-0.1v-0.4c0.7-0.1,1.3-0.2,2-0.3v4.6H366.6L366.6,101.6z"/>
<path class="st0" d="M375.6,98.3c0.2-0.2,0.5-0.4,0.7-0.6c0.3-0.3,0.7-0.5,1.1-0.5c1,0,1.6,0.8,1.6,2v3.3c0,0.8,0,0.9,0.7,1v0.4H377
	v-0.4c0.7-0.1,0.7-0.2,0.7-1v-2.9c0-0.9-0.4-1.4-1-1.4c-0.4,0.1-0.8,0.3-1.1,0.6v3.7c0,0.8,0.1,0.9,0.7,1v0.4h-2.8v-0.4
	c0.8-0.1,0.9-0.2,0.9-1v-3.4c0-0.9,0-0.9-0.8-1v-0.3c0.7-0.1,1.4-0.3,2-0.6L375.6,98.3L375.6,98.3z"/>
<path class="st0" d="M387.8,102.4c0,0.7,0.1,0.7,0.4,0.7h0.4v0.4c-0.7,0.1-1.4,0.3-2.1,0.6v-0.9l-0.9,0.6c-0.1,0.1-0.3,0.2-0.5,0.2
	c-1,0-2.4-1-2.4-3.3c-0.2-1.8,1.2-3.4,3-3.6c0.1,0,0.1,0,0.2,0c0.2,0,0.4,0,0.6,0.1V95c0-0.9,0-0.9-0.9-0.9v-0.4
	c0.7-0.1,1.4-0.3,2.1-0.5L387.8,102.4L387.8,102.4z M386.5,98.5c-0.1-0.4-0.5-0.7-1-0.7c-0.3,0-1.3,0.3-1.3,2.6
	c0,1.8,0.9,2.6,1.5,2.6c0.3,0,0.7-0.1,0.9-0.4v-4.1H386.5L386.5,98.5z"/>
<path class="st0" d="M396,102.6c-0.4,0.8-1.1,1.4-1.9,1.6c-1.6,0-2.5-1.4-2.5-3.2s1.1-3.7,2.7-3.7c1.1,0.2,1.9,1.1,1.8,2.2
	c0,0.6,0,0.6-0.3,0.6s-1.7,0.2-3,0.2c0,1.9,0.9,2.7,1.8,2.7c0.5,0,0.9-0.3,1.3-0.6L396,102.6z M394.6,99.6c0.2,0,0.2-0.1,0.2-0.4
	c0-0.6-0.4-1.4-0.9-1.4s-1,0.7-1.1,1.8H394.6z"/>
<path class="st0" d="M401,98.7L401,98.7c0.3-0.6,0.8-1.5,1.4-1.5c0.4,0,0.7,0.5,0.7,0.9s-0.2,0.7-0.5,0.9c-0.1,0.1-0.2,0-0.3,0
	c0,0,0,0,0-0.1c-0.2-0.2-0.4-0.3-0.6-0.3s-0.5,0.2-0.7,0.8v3c0,0.8,0.1,0.9,1,1v0.4h-3v-0.4c0.7-0.1,0.8-0.2,0.8-1V99
	c0-0.9,0-0.9-0.8-1v-0.3c0.7-0.1,1.4-0.3,2-0.6V98.7z"/>
<path class="st0" d="M125.1,90.3"/>
<path class="st0" d="M117.5,112.2c2.6-3.7,5.5-7.4,6.6-8.2c0.1,0,0.2-0.1,0.3-0.1c2.7-0.1,5.3-0.9,7.6-2.3c1.3-1.1,2.5-2.3,3.7-3.5
	c0.8-1.5,1.6-3,2.2-4.6l0,0l-0.1,0.1l0.2-0.5V93l0.3-1.1c0-0.3-0.2-0.6-0.5-0.8c-0.2-0.1-0.5-0.1-0.7-0.1v-0.1
	c0.2-0.3,0.3-0.7,0.3-1.1v-0.1c0-0.3-0.2-0.6-0.5-0.8c-0.3-0.2-0.7-0.2-1.1-0.1c-0.2-0.3-0.4-0.4-0.5-0.4s-0.6-0.2-1.5,0.3
	c-0.4,0.3-0.7,0.6-1,0.9c0-0.2,0-0.3,0.1-0.5c-0.1-0.3-0.3-0.6-0.6-0.7c-0.5-0.2-1.1-0.1-1.5,0.3c-0.6,0.6-1.1,1.2-1.5,2
	c-0.5,0.5-1,1-1.4,1.6c-0.9,0.4-1.8,0.5-2.7,0.3c0.8-0.4,1.4-0.9,2-1.5c0.8-0.8,1.2-1.9,1.3-3v-0.4c-0.1-0.4-0.3-0.7-0.6-0.9
	c-0.8-0.2-1.6,0-2.1,0.6l-0.5,0.5c-0.5,0.1-1,0.4-1.5,0.7c-0.3,0.3-0.7,0.5-1.1,0.6c-0.6,0.2-1.2,0.5-1.7,0.9l0,0
	c-0.1,0.1-1,0.7-1.3,0.9c-1.1,0.6-2,1.3-2.9,2.2c-1.5,1.5-3.5,3.5-12.1,6.4c-0.1-3.2-2-11.8-2.4-15.1c-0.8-5.8-7.4-13.8-12.2-18.8
	c4.5,2.6,7,3,9.5-0.4c0.7-1,1.7,0.1,2.6-0.1c1.4-0.7,1.2-1.1,1.2-2.1c0.4-1.1,1.5-0.5,2.3-0.7c2-0.3,0.8-2.5,1.6-3.5
	c8.8-0.5-1.1-8.7,4.8-12.1c3.9-1.8,5.3-4.3,7-6.6c1.4-1.9,1.7-0.4,2.8-2c1.9-7-1.4-15.6-5.7-21.6C94.3-11.9,69.3,1.2,62,18.9
	c-3,4.5-2.1,11-2.2,16.4c-0.6,1.9-1.7,1.8-3.3,0.7c-0.4,3.7,2.5,4.4,3.8,4.7c0.1,0.5,1,1.2,1.3,1.7c-1.5,0.2-3-0.1-4.3-0.8
	c0,0.8,0.2,1.6,0.7,2.3c0.2,2.1,1.7,3.8,3.7,4.3c3.5,1.4,1.9,6.3,1.5,8.3c-0.1,0.4-0.3,0.9-0.4,1.3c-3.2,0.8-5.4,3.8-6.3,6.9
	c-0.4,7.5-4.2,13.7-4.1,21.4c-0.1,0.5-0.1,1.1,0,1.6c1.7,7.6-0.1,17.4-0.2,25.6c-18.4,3.5-36,10.1-52.2,19.4
	c25.9-10.6,56.1-16.6,88.4-16.6s62.5,6.1,88.4,16.6C158.5,122.3,138.4,115.4,117.5,112.2z M68.4,96.4c2.1-5.3,7.4-8.7,15.8-10.3h0.2
	c1.7-0.2,5.7-0.8,7.1,1.9c0.2,0.3,0.2,0.7,0.1,1s-0.3,0.5-0.6,0.5c-7.6,0.2-14.8,3.6-19.8,9.4c0,0-0.6,0.6-2.1-0.6
	C68.5,97.9,68.2,97.2,68.4,96.4z"/>
</svg>
